# xmcd CD database file
#
# Track frame offsets:
#	182
#	22937
#	40682
#	60692
#	80125
#	100782
#	122562
#	140425
#	163485
#	185357
#	205952
#
# Disc length: 2954 seconds
#
# Revision: 0
# Processed by: cddbd v1.5.2PL0 Copyright (c) Steve Scherf et al.
# Submitted via: CDex 1.79
#
DISCID=940b880b
DTITLE=Jouvelet, Xavier - L'indigene
DYEAR=1992
DGENRE=Jazz
TTITLE0=Papanaleo
TTITLE1=Lundi gene
TTITLE2=Linda Flor
TTITLE3=Milousso
TTITLE4=Marchand de reve
TTITLE5=Akisso loco
TTITLE6=Keta oh Keba
TTITLE7=Lettre a ma zonie
TTITLE8=Arme d'uranium
TTITLE9=Visa nul
TTITLE10=Karma sous l'drap
EXTD=YEAR: 1992
EXTT0=
EXTT1=
EXTT2=
EXTT3=
EXTT4=
EXTT5=
EXTT6=
EXTT7=
EXTT8=
EXTT9=
EXTT10=
PLAYORDER=
